<?xml version="1.0" standalone="no"?><!DOCTYPE svg PUBLIC "-//W3C//DTD SVG 1.1//EN" "http://www.w3.org/Graphics/SVG/1.1/DTD/svg11.dtd"><svg t="1525314679901" class="icon" style="" viewBox="0 0 1024 1024" version="1.1" xmlns="http://www.w3.org/2000/svg" p-id="1027" xmlns:xlink="http://www.w3.org/1999/xlink" width="20" height="20"><defs><style type="text/css"></style></defs><path d="M512 0C228.266667 0 0 228.266667 0 512s228.266667 512 512 512 512-228.266667 512-512S795.733333 0 512 0z m-14.933333 768c-10.666667 0-21.333333-8.533333-21.333334-21.333333 0-10.666667 8.533333-21.333333 21.333334-21.333334 10.666667 0 21.333333 8.533333 21.333333 21.333334s-10.666667 21.333333-21.333333 21.333333z m102.4-258.133333c-66.133333 57.6-83.2 83.2-83.2 155.733333 0 10.666667-8.533333 21.333333-21.333334 21.333333-10.666667 0-21.333333-8.533333-21.333333-21.333333 0-91.733333 29.866667-128 98.133333-187.733333 29.866667-21.333333 46.933333-55.466667 46.933334-89.6 0-53.333333-40.533333-91.733333-100.266667-91.733334-100.266667 0-115.2 81.066667-115.2 130.133334 0 10.666667-8.533333 21.333333-21.333333 21.333333-10.666667 0-21.333333-8.533333-21.333334-21.333333 0-106.666667 57.6-170.666667 157.866667-170.666667 83.2 0 140.8 55.466667 140.8 132.266667 2.133333 46.933333-21.333333 93.866667-59.733333 121.6z" fill="#666767" p-id="1028"></path></svg>