<?xml version="1.0" standalone="no"?><!DOCTYPE svg PUBLIC "-//W3C//DTD SVG 1.1//EN" "http://www.w3.org/Graphics/SVG/1.1/DTD/svg11.dtd"><svg t="1525329381930" class="icon" style="" viewBox="0 0 1024 1024" version="1.1" xmlns="http://www.w3.org/2000/svg" p-id="1759" xmlns:xlink="http://www.w3.org/1999/xlink" width="14" height="14"><defs><style type="text/css"></style></defs><path d="M896.32 336.992 523.648 709.664c-0.064 0.064-0.16 0.064-0.192 0.128-0.064 0.064-0.064 0.128-0.128 0.192-2.752 2.752-6.304 4.032-9.952 4.32-0.48 0.032-0.896 0.256-1.376 0.256-0.48 0-0.896-0.192-1.376-0.256-3.648-0.288-7.2-1.568-9.952-4.32-0.064-0.064-0.064-0.128-0.128-0.192-0.064-0.064-0.16-0.064-0.192-0.128L127.68 336.992c-6.432-6.432-6.592-16.704-0.32-22.976 6.24-6.24 16.512-6.112 22.976 0.32L512 676.064 873.696 314.368c6.432-6.432 16.704-6.592 22.976-0.32C902.912 320.288 902.752 330.56 896.32 336.992z" p-id="1760" fill="#B2B2B2"></path></svg>