
<svg width="24px" height="24px" viewBox="0 0 24 24" version="1.1" xmlns="http://www.w3.org/2000/svg" xmlns:xlink="http://www.w3.org/1999/xlink">
    <!-- Generator: Sketch 49 (51002) - http://www.bohemiancoding.com/sketch -->
    <desc>Created with Sketch.</desc>
    <defs></defs>
    <g id="balance4-testnet" stroke="none" stroke-width="1" fill="none" fill-rule="evenodd">
        <g id="首页-transfer-input2" transform="translate(-922.000000, -378.000000)">
            <g id="transfer" transform="translate(100.000000, 226.000000)">
                <g id="大图标/警告" transform="translate(822.000000, 152.000000)">
                    <path d="M24,12.1481481 C24,5.37244444 18.6275556,0 11.8518519,0 C5.37244444,0 0,5.37244444 0,12.1481481 C0,18.6275556 5.37244444,24 11.8518519,24 C18.6275556,24 24,18.6275556 24,12.1481481 Z" id="Fill-" fill="#FF6A6A"></path>
                    <path d="M12,6.4516129 C12.5023156,6.4516129 12.8885437,6.84910485 12.8704323,7.33943601 L12.634944,13.714852 C12.616672,14.2095324 12.1990255,14.6026751 11.7017455,14.6026751 L12.2982545,14.6026751 C11.8055709,14.6026751 11.3831673,14.2051831 11.365056,13.714852 L11.1295677,7.33943601 C11.1112957,6.84475557 11.5011622,6.4516129 12,6.4516129 Z M12,17.5483871 C11.5011622,17.5483871 11.0967742,17.1439991 11.0967742,16.6451613 C11.0967742,16.1463235 11.5011622,15.7419355 12,15.7419355 C12.4988378,15.7419355 12.9032258,16.1463235 12.9032258,16.6451613 C12.9032258,17.1439991 12.4988378,17.5483871 12,17.5483871 Z" id="Path-" fill="#FFFFFF"></path>
                </g>
            </g>
        </g>
    </g>
</svg>