
<svg width="24px" height="24px" viewBox="0 0 24 24" version="1.1" xmlns="http://www.w3.org/2000/svg" xmlns:xlink="http://www.w3.org/1999/xlink">
    <!-- Generator: Sketch 49 (51002) - http://www.bohemiancoding.com/sketch -->
    <desc>Created with Sketch.</desc>
    <defs></defs>
    <g id="balance4-testnet" stroke="none" stroke-width="1" fill="none" fill-rule="evenodd">
        <g id="首页-transfer-input" transform="translate(-922.000000, -378.000000)">
            <g id="Group-3" transform="translate(100.000000, 226.000000)">
                <g id="打勾" transform="translate(822.000000, 152.000000)">
                    <path d="M24,12.1481481 C24,5.37244444 18.6275556,0 11.8518519,0 C5.37244444,0 0,5.37244444 0,12.1481481 C0,18.6275556 5.37244444,24 11.8518519,24 C18.6275556,24 24,18.6275556 24,12.1481481 Z" id="Fill-" fill="#2DDE4F"></path>
                    <path d="M6.24495173,12.8463504 C5.85629375,12.4462672 5.80994048,11.7582606 6.13202499,11.3223582 L5.65063175,11.9738657 C5.97692202,11.5322713 6.59749362,11.4457243 7.04125477,11.7840166 L8.89010697,13.1934516 C9.33183659,13.5301952 10.0375725,13.515119 10.4656906,13.1603759 L17.0047746,7.74202312 C17.4332158,7.38701232 18.0978607,7.41092624 18.4807444,7.78703175 L17.780536,7.09921919 C18.1672504,7.47908758 18.1678654,8.09329899 17.761334,8.49123969 L10.4090819,15.6881253 C10.0117625,16.0770486 9.37786369,16.0713594 8.98594395,15.6679185 L6.24495173,12.8463504 Z" id="Fill-" fill="#FFFFFF"></path>
                </g>
            </g>
        </g>
    </g>
</svg>