
<svg width="48px" height="52px" viewBox="0 0 48 52" version="1.1" xmlns="http://www.w3.org/2000/svg" xmlns:xlink="http://www.w3.org/1999/xlink">
    <!-- Generator: Sketch 49 (51002) - http://www.bohemiancoding.com/sketch -->
    <desc>Created with Sketch.</desc>
    <defs>
        <rect id="path-1" x="3.41530055" y="18.9738919" width="39.0862174" height="30.3582271" rx="2"></rect>
        <path d="M19.1721601,2.41022718 L28.2077986,2.41022718 C29.5939779,2.41022718 30.6730235,3.25971725 30.6131161,4.30761637 L29.2991677,18.3482964 C29.1629471,19.3961955 24.9207297,19.2938722 23.8621428,19.2938722 C24.6429466,12.9286818 24.6429466,9.74608665 23.8621428,9.74608665 C23.1095537,9.74608665 22.950611,12.9286818 23.3853147,19.2938722 C22.3267278,19.2938722 18.2013432,19.3961955 18.0660891,18.3482964 L16.7650924,4.30761637 C16.7061517,3.25971725 17.7859808,2.41022718 19.1721601,2.41022718 Z" id="path-2"></path>
        <path d="M5.89043573,2.41022718 L14.9260743,2.41022718 C16.3122536,2.41022718 17.3912991,3.25971725 17.3313918,4.30761637 L16.0174434,18.3482964 C15.8812227,19.3961955 11.6390054,19.2938722 10.5804184,19.2938722 C11.3612223,12.9286818 11.3612223,9.74608665 10.5804184,9.74608665 C9.82782933,9.74608665 9.66888666,12.9286818 10.1035904,19.2938722 C9.04500346,19.2938722 4.91961883,19.3961955 4.78436477,18.3482964 L3.48336803,4.30761637 C3.42442731,3.25971725 4.50425646,2.41022718 5.89043573,2.41022718 Z" id="path-3"></path>
        <rect id="path-4" x="0" y="14.04068" width="46.2962963" height="13.2817243" rx="2"></rect>
        <rect id="path-5" x="17.8354584" y="14.04068" width="10.6253795" height="35.291439"></rect>
    </defs>
    <g id="balance4-testnet" stroke="none" stroke-width="1" fill="none" fill-rule="evenodd">
        <g id="首页-nns2" transform="translate(-259.000000, -432.000000)">
            <g id="gift" transform="translate(255.000000, 429.000000)">
                <g transform="translate(27.148148, 28.000000) rotate(7.000000) translate(-27.148148, -28.000000) translate(4.000000, 3.000000)">
                    <g id="Rectangle-10">
                        <use fill="#56C3F3" fill-rule="evenodd" xlink:href="#path-1"></use>
                        <rect stroke="#1784B4" stroke-width="2" x="4.41530055" y="19.9738919" width="37.0862174" height="28.3582271" rx="2"></rect>
                    </g>
                    <rect id="Rectangle-10" fill-opacity="0.2" fill="#000000" x="3.41530055" y="16.6970249" width="39.0862174" height="13.2817243"></rect>
                    <g id="Group" transform="translate(6.071645, 0.000000)">
                        <g id="Rectangle-4" transform="translate(23.689142, 10.853415) rotate(33.000000) translate(-23.689142, -10.853415) ">
                            <use fill="#FFF480" fill-rule="evenodd" xlink:href="#path-2"></use>
                            <path stroke="#FAAE31" stroke-width="2" d="M28.3318035,17.9530179 L28.3035179,18.255122 C28.3300639,18.0461566 28.4061663,17.937091 28.4624356,17.8947751 C28.4133425,17.9203498 28.3767394,17.9362751 28.3318035,17.9530179 Z M24.9894114,18.2951558 C24.7440307,18.2970363 24.4803222,18.2968564 24.1868057,18.2952529 C24.0079709,18.2942265 23.9341361,18.2938722 23.8621428,18.2938722 L24.8547029,19.4156274 C24.9019838,19.0301895 24.9469266,18.6567814 24.9894114,18.2951558 Z M22.3171632,18.29547 C22.3390876,18.6401711 22.362616,18.9956106 22.3876386,19.3620074 L23.3853147,18.2938722 C23.3131922,18.2938722 23.2398419,18.2942267 23.0628007,18.2952532 C22.7907316,18.2967568 22.5454404,18.2970071 22.3171632,18.29547 Z M19.0336526,17.9588818 C18.9764036,17.9373395 18.9332217,17.9172663 18.9056732,17.9004704 C18.9733253,17.9612773 19.0376819,18.0639385 19.057862,18.2202866 L19.0336526,17.9588818 Z M18.9056732,17.9004704 C18.9026481,17.898626 18.8998115,17.8968211 18.8971654,17.8950582 C18.904299,17.899811 18.9118144,17.9056831 18.9195485,17.9126734 Z"></path>
                        </g>
                        <g id="Rectangle-4" transform="translate(10.407418, 10.853415) scale(-1, 1) rotate(33.000000) translate(-10.407418, -10.853415) ">
                            <use fill="#FFF480" fill-rule="evenodd" xlink:href="#path-3"></use>
                            <path stroke="#FAAE31" stroke-width="2" d="M15.0500791,17.9530179 L15.0217936,18.255122 C15.0483395,18.0461566 15.124442,17.937091 15.1807113,17.8947751 C15.1316181,17.9203498 15.095015,17.9362751 15.0500791,17.9530179 Z M11.707687,18.2951558 C11.4623064,18.2970363 11.1985979,18.2968564 10.9050813,18.2952529 C10.7262466,18.2942265 10.6524118,18.2938722 10.5804184,18.2938722 L11.5729786,19.4156274 C11.6202594,19.0301895 11.6652022,18.6567814 11.707687,18.2951558 Z M9.03543889,18.29547 C9.05736323,18.6401711 9.08089162,18.9956106 9.10591429,19.3620074 L10.1035904,18.2938722 C10.0314678,18.2938722 9.9581175,18.2942267 9.78107638,18.2952532 C9.5090073,18.2967568 9.26371605,18.2970071 9.03543889,18.29547 Z M5.75192827,17.9588818 C5.69467923,17.9373395 5.65149732,17.9172663 5.62394887,17.9004704 C5.69160091,17.9612773 5.75595758,18.0639385 5.77613768,18.2202866 L5.75192827,17.9588818 Z M5.62394887,17.9004704 C5.62092373,17.898626 5.61808712,17.8968211 5.61544109,17.8950582 C5.62257469,17.899811 5.63009002,17.9056831 5.63782418,17.9126734 Z"></path>
                        </g>
                    </g>
                    <g id="Rectangle-10">
                        <use fill="#56C3F3" fill-rule="evenodd" xlink:href="#path-4"></use>
                        <rect stroke="#1784B4" stroke-width="2" x="1" y="15.04068" width="44.2962963" height="11.2817243" rx="2"></rect>
                    </g>
                    <rect id="Rectangle-10" fill-opacity="0.2" fill="#000000" x="19.3533698" y="14.04068" width="10.6253795" height="35.291439"></rect>
                    <rect id="Rectangle-10" fill-opacity="0.2" fill="#000000" x="16.3175471" y="14.04068" width="10.6253795" height="35.291439"></rect>
                    <g id="Rectangle-10">
                        <use fill="#FFF480" fill-rule="evenodd" xlink:href="#path-5"></use>
                        <rect stroke="#FAAE31" stroke-width="2" x="18.8354584" y="15.04068" width="8.62537948" height="33.291439"></rect>
                    </g>
                    <rect id="Rectangle-10" fill-opacity="0.1" fill="#000000" x="17.8354584" y="20.8712811" width="10.6253795" height="28.4608379"></rect>
                </g>
            </g>
        </g>
    </g>
</svg>